<!-- Generated by IcoMoon.io -->
<svg version="1.1" xmlns="http://www.w3.org/2000/svg" width="32" height="32" viewBox="0 0 32 32">
<title>menu</title>
<path d="M26.092 23.75h-20c-0.526-0.033-0.751-0.953 0-1h20c0.021 0.001 0.042 0.003 0.063 0.004 0.488 0.093 0.669 0.95-0.063 0.996zM26.092 18.684h-20c-0.512-0.032-0.772-0.951 0-1h20c0.021 0.001 0.042 0.003 0.063 0.004 0.488 0.093 0.669 0.95-0.063 0.996zM26.092 13.618h-20c-0.52-0.033-0.751-0.953 0-1h20c0.021 0.002 0.042 0.003 0.063 0.004 0.494 0.094 0.65 0.951-0.063 0.996zM26.092 8.553h-20c-0.432-0.027-0.451-0.197-0.491-0.406-0.055-0.289 0.184-0.575 0.491-0.594h20c0.021 0.001 0.042 0.003 0.063 0.004 0.425 0.081 0.423 0.252 0.436 0.464 0.017 0.271-0.213 0.514-0.499 0.531z"></path>
</svg>
