<?xml version="1.0" encoding="UTF-8" standalone="no"?>
<!-- Generated by IcoMoon.io -->

<svg
   xmlns:dc="http://purl.org/dc/elements/1.1/"
   xmlns:cc="http://creativecommons.org/ns#"
   xmlns:rdf="http://www.w3.org/1999/02/22-rdf-syntax-ns#"
   xmlns:svg="http://www.w3.org/2000/svg"
   xmlns="http://www.w3.org/2000/svg"
   xmlns:sodipodi="http://sodipodi.sourceforge.net/DTD/sodipodi-0.dtd"
   xmlns:inkscape="http://www.inkscape.org/namespaces/inkscape"
   version="1.1"
   width="32"
   height="32"
   viewBox="0 0 32 32"
   id="svg6"
   sodipodi:docname="menu.svg"
   inkscape:version="0.92.4 (5da689c313, 2019-01-14)">
  <metadata
     id="metadata12">
    <rdf:RDF>
      <cc:Work
         rdf:about="">
        <dc:format>image/svg+xml</dc:format>
        <dc:type
           rdf:resource="http://purl.org/dc/dcmitype/StillImage" />
      </cc:Work>
    </rdf:RDF>
  </metadata>
  <defs
     id="defs10" />
  <sodipodi:namedview
     pagecolor="#ffffff"
     bordercolor="#666666"
     borderopacity="1"
     objecttolerance="10"
     gridtolerance="10"
     guidetolerance="10"
     inkscape:pageopacity="0"
     inkscape:pageshadow="2"
     inkscape:window-width="1366"
     inkscape:window-height="705"
     id="namedview8"
     showgrid="false"
     inkscape:zoom="5.2149125"
     inkscape:cx="-34.235949"
     inkscape:cy="9.036163"
     inkscape:window-x="-8"
     inkscape:window-y="-8"
     inkscape:window-maximized="1"
     inkscape:current-layer="svg6" />
  <title
     id="title2">menu</title>
  <rect
     style="opacity:1;fill:none;fill-opacity:1;fill-rule:evenodd;stroke:#333333;stroke-width:0.30000001;stroke-linejoin:miter;stroke-miterlimit:4;stroke-dasharray:none;stroke-dashoffset:0;stroke-opacity:1"
     id="rect828"
     width="22.2439"
     height="13.6148"
     x="-54.363331"
     y="14.166527"
     rx="0.10987539"
     ry="1.1108222" />
  <path
     d="m 59.854712,23.885593 h -20 c -0.526,-0.033 -0.751,-0.953 0,-1 h 20 c 0.021,0.001 0.042,0.003 0.063,0.004 0.488,0.093 0.669,0.95 -0.063,0.996 z m 0,-5.066 h -20 c -0.512,-0.032 -0.772,-0.951 0,-1 h 20 c 0.021,10e-4 0.042,0.003 0.063,0.004 0.488,0.093 0.669,0.95 -0.063,0.996 z m 0,-5.066 c -3.690696,0.07929 5.391855,-0.739062 0,-1 v 0 c -0.52,-0.033 -0.751,0.047 0,0 v 0 c 0.021,0.002 0.042,0.003 0.063,0.004 0.494,0.094 0.65,0.951 -0.063,0.996 z m -20,-5.0649998 c -0.432,-0.027 -0.451,-0.197 -0.491,-0.406 -0.055,-0.289 0.184,-0.575 0.491,-0.594 h 11.670712 8.329288 c 0.021,0.001 0.042,0.003 0.063,0.004 0.425,0.081 0.423,0.252 0.436,0.464 0.017,0.271 -0.213,0.514 -0.499,0.531 -6.664553,0.00198 -13.333835,10e-4 -20,10e-4 z"
     id="path4"
     inkscape:connector-curvature="0"
     sodipodi:nodetypes="cccccccccccccccccccccccccccc" />
  <g
     id="g833"
     transform="translate(14.66947,-4.4104284)">
    <rect
       ry="1.6271186"
       rx="0.117453"
       y="15.050847"
       x="-33.220341"
       height="1.6271186"
       width="18.440678"
       id="rect822"
       style="opacity:1;fill:#333333;fill-opacity:1;fill-rule:evenodd;stroke:none;stroke-width:1.13385832;stroke-linejoin:miter;stroke-miterlimit:4;stroke-dasharray:none;stroke-dashoffset:0;stroke-opacity:1" />
    <rect
       style="opacity:1;fill:#333333;fill-opacity:1;fill-rule:evenodd;stroke:none;stroke-width:1.13385832;stroke-linejoin:miter;stroke-miterlimit:4;stroke-dasharray:none;stroke-dashoffset:0;stroke-opacity:1"
       id="rect824"
       width="18.440678"
       height="1.6271186"
       x="-33.220341"
       y="19.469967"
       rx="0.117453"
       ry="1.6271186" />
    <rect
       ry="1.6271186"
       rx="0.117453"
       y="23.889084"
       x="-33.220341"
       height="1.6271186"
       width="18.440678"
       id="rect826"
       style="opacity:1;fill:#333333;fill-opacity:1;fill-rule:evenodd;stroke:none;stroke-width:1.13385832;stroke-linejoin:miter;stroke-miterlimit:4;stroke-dasharray:none;stroke-dashoffset:0;stroke-opacity:1" />
  </g>
</svg>
