<!-- Generated by IcoMoon.io -->
<svg version="1.1" xmlns="http://www.w3.org/2000/svg" width="32" height="32" viewBox="0 0 32 32">
<title>search</title>
<path d="M18.985 19.882c-2.904 2.536-7.247 3.335-10.9 1.841-4.405-1.801-7.211-6.867-6.368-11.581 0.843-4.717 5.229-8.532 10.133-8.641 0.090-0.002 0.181-0.002 0.271-0.002 4.82 0.046 9.364 3.765 10.256 8.578 0.599 3.226-0.433 6.711-2.672 9.108l8.697 8.455c0.186 0.197 0.154 0.262 0.151 0.372-0.011 0.381-0.527 0.632-0.849 0.345l-8.719-8.476zM11.991 2.5c-4.302 0.041-8.339 3.293-9.233 7.528-0.659 3.117 0.379 6.542 2.66 8.768 2.619 2.557 6.766 3.416 10.224 2.001 4.001-1.636 6.546-6.258 5.752-10.537-0.787-4.242-4.715-7.66-9.157-7.759-0.082-0.001-0.164-0.002-0.245-0.002z"></path>
</svg>
