<!-- Generated by IcoMoon.io -->
<svg version="1.1" xmlns="http://www.w3.org/2000/svg" width="32" height="32" viewBox="0 0 32 32">
<title>shooping-cart</title>
<path d="M9.333 24c-1.473 0-2.653 1.193-2.653 2.667s1.18 2.667 2.653 2.667 2.667-1.193 2.667-2.667-1.193-2.667-2.667-2.667zM1.333 2.667v2.667h2.667l4.793 10.113-1.8 3.267c-0.207 0.387-0.327 0.82-0.327 1.287 0 1.473 1.193 2.667 2.667 2.667h16v-2.667h-15.433c-0.187 0-0.333-0.147-0.333-0.333 0-0.060 0.013-0.113 0.040-0.16l1.193-2.173h9.933c1 0 1.873-0.553 2.333-1.373l4.767-8.653c0.107-0.187 0.167-0.407 0.167-0.64 0-0.74-0.6-1.333-1.333-1.333h-19.713l-1.267-2.667h-4.353zM22.667 24c-1.473 0-2.653 1.193-2.653 2.667s1.18 2.667 2.653 2.667 2.667-1.193 2.667-2.667-1.193-2.667-2.667-2.667z"></path>
</svg>
